<svg xmlns="http://www.w3.org/2000/svg" width="1120" height="650" viewBox="0 0 1120 650" role="img" aria-labelledby="title desc">
  <title id="title">BCM70015 fixed metadata publication comparison</title>
  <desc id="desc">Changed 72-byte metadata fingerprints between two non-atomic passes, for slots 0 through 33 in each trial and stage. First-output passes differ in 18 slots in A and 17 in B. One raw return write index zero is preserved without cause attribution. Whole outputs, EOS and cleanup pass; no current record, ARC completion, generation, extent or source lease is certified.</desc>
  <rect width="1120" height="650" fill="#f7f9fc"/>
  <g font-family="DejaVu Sans, sans-serif" fill="#182b49">
    <text x="32" y="43" font-size="23">Fixed PPB metadata: publication during native delivery</text>
    <text x="32" y="72" font-size="14">Two H.264 trials · 256 × 96 · 180 frames each · 16 non-atomic snapshots</text>
    <text x="320" y="97" font-size="13">Metadata slots 0–33 · fingerprint of each fixed 72-byte prefix</text>
    <text x="1010" y="97" font-size="13">Changed</text>
    <text x="328" y="120" text-anchor="middle" font-size="11">0</text>
    <text x="428" y="120" text-anchor="middle" font-size="11">5</text>
    <text x="528" y="120" text-anchor="middle" font-size="11">10</text>
    <text x="628" y="120" text-anchor="middle" font-size="11">15</text>
    <text x="728" y="120" text-anchor="middle" font-size="11">20</text>
    <text x="828" y="120" text-anchor="middle" font-size="11">25</text>
    <text x="928" y="120" text-anchor="middle" font-size="11">30</text>
    <text x="988" y="120" text-anchor="middle" font-size="11">33</text>
    <text x="32" y="151" font-size="13">OPEN / pre-START</text><text x="278" y="151" font-size="13">A</text>
    <g data-trial="A" data-stage="0"><rect data-slot="0" data-changed="no" x="320" y="138" width="16" height="18" rx="2" fill="#edf0f5" stroke="#c4cedc"/><rect data-slot="1" data-changed="no" x="340" y="138" width="16" height="18" rx="2" fill="#edf0f5" stroke="#c4cedc"/><rect data-slot="2" data-changed="no" x="360" y="138" width="16" height="18" rx="2" fill="#edf0f5" stroke="#c4cedc"/><rect data-slot="3" data-changed="no" x="380" y="138" width="16" height="18" rx="2" fill="#edf0f5" stroke="#c4cedc"/><rect data-slot="4" data-changed="no" x="400" y="138" width="16" height="18" rx="2" fill="#edf0f5" stroke="#c4cedc"/><rect data-slot="5" data-changed="no" x="420" y="138" width="16" height="18" rx="2" fill="#edf0f5" stroke="#c4cedc"/><rect data-slot="6" data-changed="no" x="440" y="138" width="16" height="18" rx="2" fill="#edf0f5" stroke="#c4cedc"/><rect data-slot="7" data-changed="no" x="460" y="138" width="16" height="18" rx="2" fill="#edf0f5" stroke="#c4cedc"/><rect data-slot="8" data-changed="no" x="480" y="138" width="16" height="18" rx="2" fill="#edf0f5" stroke="#c4cedc"/><rect data-slot="9" data-changed="no" x="500" y="138" width="16" height="18" rx="2" fill="#edf0f5" stroke="#c4cedc"/><rect data-slot="10" data-changed="no" x="520" y="138" width="16" height="18" rx="2" fill="#edf0f5" stroke="#c4cedc"/><rect data-slot="11" data-changed="no" x="540" y="138" width="16" height="18" rx="2" fill="#edf0f5" stroke="#c4cedc"/><rect data-slot="12" data-changed="no" x="560" y="138" width="16" height="18" rx="2" fill="#edf0f5" stroke="#c4cedc"/><rect data-slot="13" data-changed="no" x="580" y="138" width="16" height="18" rx="2" fill="#edf0f5" stroke="#c4cedc"/><rect data-slot="14" data-changed="no" x="600" y="138" width="16" height="18" rx="2" fill="#edf0f5" stroke="#c4cedc"/><rect data-slot="15" data-changed="no" x="620" y="138" width="16" height="18" rx="2" fill="#edf0f5" stroke="#c4cedc"/><rect data-slot="16" data-changed="no" x="640" y="138" width="16" height="18" rx="2" fill="#edf0f5" stroke="#c4cedc"/><rect data-slot="17" data-changed="no" x="660" y="138" width="16" height="18" rx="2" fill="#edf0f5" stroke="#c4cedc"/><rect data-slot="18" data-changed="no" x="680" y="138" width="16" height="18" rx="2" fill="#edf0f5" stroke="#c4cedc"/><rect data-slot="19" data-changed="no" x="700" y="138" width="16" height="18" rx="2" fill="#edf0f5" stroke="#c4cedc"/><rect data-slot="20" data-changed="no" x="720" y="138" width="16" height="18" rx="2" fill="#edf0f5" stroke="#c4cedc"/><rect data-slot="21" data-changed="no" x="740" y="138" width="16" height="18" rx="2" fill="#edf0f5" stroke="#c4cedc"/><rect data-slot="22" data-changed="no" x="760" y="138" width="16" height="18" rx="2" fill="#edf0f5" stroke="#c4cedc"/><rect data-slot="23" data-changed="no" x="780" y="138" width="16" height="18" rx="2" fill="#edf0f5" stroke="#c4cedc"/><rect data-slot="24" data-changed="no" x="800" y="138" width="16" height="18" rx="2" fill="#edf0f5" stroke="#c4cedc"/><rect data-slot="25" data-changed="no" x="820" y="138" width="16" height="18" rx="2" fill="#edf0f5" stroke="#c4cedc"/><rect data-slot="26" data-changed="no" x="840" y="138" width="16" height="18" rx="2" fill="#edf0f5" stroke="#c4cedc"/><rect data-slot="27" data-changed="no" x="860" y="138" width="16" height="18" rx="2" fill="#edf0f5" stroke="#c4cedc"/><rect data-slot="28" data-changed="no" x="880" y="138" width="16" height="18" rx="2" fill="#edf0f5" stroke="#c4cedc"/><rect data-slot="29" data-changed="no" x="900" y="138" width="16" height="18" rx="2" fill="#edf0f5" stroke="#c4cedc"/><rect data-slot="30" data-changed="no" x="920" y="138" width="16" height="18" rx="2" fill="#edf0f5" stroke="#c4cedc"/><rect data-slot="31" data-changed="no" x="940" y="138" width="16" height="18" rx="2" fill="#edf0f5" stroke="#c4cedc"/><rect data-slot="32" data-changed="no" x="960" y="138" width="16" height="18" rx="2" fill="#edf0f5" stroke="#c4cedc"/><rect data-slot="33" data-changed="no" x="980" y="138" width="16" height="18" rx="2" fill="#edf0f5" stroke="#c4cedc"/></g><text x="1032" y="151" font-size="13">0</text>
    <text x="32" y="179" font-size="13">OPEN / pre-START</text><text x="278" y="179" font-size="13">B</text>
    <g data-trial="B" data-stage="0"><rect data-slot="0" data-changed="no" x="320" y="166" width="16" height="18" rx="2" fill="#edf0f5" stroke="#c4cedc"/><rect data-slot="1" data-changed="no" x="340" y="166" width="16" height="18" rx="2" fill="#edf0f5" stroke="#c4cedc"/><rect data-slot="2" data-changed="no" x="360" y="166" width="16" height="18" rx="2" fill="#edf0f5" stroke="#c4cedc"/><rect data-slot="3" data-changed="no" x="380" y="166" width="16" height="18" rx="2" fill="#edf0f5" stroke="#c4cedc"/><rect data-slot="4" data-changed="no" x="400" y="166" width="16" height="18" rx="2" fill="#edf0f5" stroke="#c4cedc"/><rect data-slot="5" data-changed="no" x="420" y="166" width="16" height="18" rx="2" fill="#edf0f5" stroke="#c4cedc"/><rect data-slot="6" data-changed="no" x="440" y="166" width="16" height="18" rx="2" fill="#edf0f5" stroke="#c4cedc"/><rect data-slot="7" data-changed="no" x="460" y="166" width="16" height="18" rx="2" fill="#edf0f5" stroke="#c4cedc"/><rect data-slot="8" data-changed="no" x="480" y="166" width="16" height="18" rx="2" fill="#edf0f5" stroke="#c4cedc"/><rect data-slot="9" data-changed="no" x="500" y="166" width="16" height="18" rx="2" fill="#edf0f5" stroke="#c4cedc"/><rect data-slot="10" data-changed="no" x="520" y="166" width="16" height="18" rx="2" fill="#edf0f5" stroke="#c4cedc"/><rect data-slot="11" data-changed="no" x="540" y="166" width="16" height="18" rx="2" fill="#edf0f5" stroke="#c4cedc"/><rect data-slot="12" data-changed="no" x="560" y="166" width="16" height="18" rx="2" fill="#edf0f5" stroke="#c4cedc"/><rect data-slot="13" data-changed="no" x="580" y="166" width="16" height="18" rx="2" fill="#edf0f5" stroke="#c4cedc"/><rect data-slot="14" data-changed="no" x="600" y="166" width="16" height="18" rx="2" fill="#edf0f5" stroke="#c4cedc"/><rect data-slot="15" data-changed="no" x="620" y="166" width="16" height="18" rx="2" fill="#edf0f5" stroke="#c4cedc"/><rect data-slot="16" data-changed="no" x="640" y="166" width="16" height="18" rx="2" fill="#edf0f5" stroke="#c4cedc"/><rect data-slot="17" data-changed="no" x="660" y="166" width="16" height="18" rx="2" fill="#edf0f5" stroke="#c4cedc"/><rect data-slot="18" data-changed="no" x="680" y="166" width="16" height="18" rx="2" fill="#edf0f5" stroke="#c4cedc"/><rect data-slot="19" data-changed="no" x="700" y="166" width="16" height="18" rx="2" fill="#edf0f5" stroke="#c4cedc"/><rect data-slot="20" data-changed="no" x="720" y="166" width="16" height="18" rx="2" fill="#edf0f5" stroke="#c4cedc"/><rect data-slot="21" data-changed="no" x="740" y="166" width="16" height="18" rx="2" fill="#edf0f5" stroke="#c4cedc"/><rect data-slot="22" data-changed="no" x="760" y="166" width="16" height="18" rx="2" fill="#edf0f5" stroke="#c4cedc"/><rect data-slot="23" data-changed="no" x="780" y="166" width="16" height="18" rx="2" fill="#edf0f5" stroke="#c4cedc"/><rect data-slot="24" data-changed="no" x="800" y="166" width="16" height="18" rx="2" fill="#edf0f5" stroke="#c4cedc"/><rect data-slot="25" data-changed="no" x="820" y="166" width="16" height="18" rx="2" fill="#edf0f5" stroke="#c4cedc"/><rect data-slot="26" data-changed="no" x="840" y="166" width="16" height="18" rx="2" fill="#edf0f5" stroke="#c4cedc"/><rect data-slot="27" data-changed="no" x="860" y="166" width="16" height="18" rx="2" fill="#edf0f5" stroke="#c4cedc"/><rect data-slot="28" data-changed="no" x="880" y="166" width="16" height="18" rx="2" fill="#edf0f5" stroke="#c4cedc"/><rect data-slot="29" data-changed="no" x="900" y="166" width="16" height="18" rx="2" fill="#edf0f5" stroke="#c4cedc"/><rect data-slot="30" data-changed="no" x="920" y="166" width="16" height="18" rx="2" fill="#edf0f5" stroke="#c4cedc"/><rect data-slot="31" data-changed="no" x="940" y="166" width="16" height="18" rx="2" fill="#edf0f5" stroke="#c4cedc"/><rect data-slot="32" data-changed="no" x="960" y="166" width="16" height="18" rx="2" fill="#edf0f5" stroke="#c4cedc"/><rect data-slot="33" data-changed="no" x="980" y="166" width="16" height="18" rx="2" fill="#edf0f5" stroke="#c4cedc"/></g><text x="1032" y="179" font-size="13">0</text>
    <text x="32" y="207" font-size="13">First output, released</text><text x="278" y="207" font-size="13">A</text>
    <g data-trial="A" data-stage="1"><rect data-slot="0" data-changed="no" x="320" y="194" width="16" height="18" rx="2" fill="#edf0f5" stroke="#c4cedc"/><rect data-slot="1" data-changed="yes" x="340" y="194" width="16" height="18" rx="2" fill="#2469b2" stroke="#c4cedc"/><rect data-slot="2" data-changed="yes" x="360" y="194" width="16" height="18" rx="2" fill="#2469b2" stroke="#c4cedc"/><rect data-slot="3" data-changed="no" x="380" y="194" width="16" height="18" rx="2" fill="#edf0f5" stroke="#c4cedc"/><rect data-slot="4" data-changed="no" x="400" y="194" width="16" height="18" rx="2" fill="#edf0f5" stroke="#c4cedc"/><rect data-slot="5" data-changed="no" x="420" y="194" width="16" height="18" rx="2" fill="#edf0f5" stroke="#c4cedc"/><rect data-slot="6" data-changed="no" x="440" y="194" width="16" height="18" rx="2" fill="#edf0f5" stroke="#c4cedc"/><rect data-slot="7" data-changed="no" x="460" y="194" width="16" height="18" rx="2" fill="#edf0f5" stroke="#c4cedc"/><rect data-slot="8" data-changed="no" x="480" y="194" width="16" height="18" rx="2" fill="#edf0f5" stroke="#c4cedc"/><rect data-slot="9" data-changed="no" x="500" y="194" width="16" height="18" rx="2" fill="#edf0f5" stroke="#c4cedc"/><rect data-slot="10" data-changed="no" x="520" y="194" width="16" height="18" rx="2" fill="#edf0f5" stroke="#c4cedc"/><rect data-slot="11" data-changed="no" x="540" y="194" width="16" height="18" rx="2" fill="#edf0f5" stroke="#c4cedc"/><rect data-slot="12" data-changed="no" x="560" y="194" width="16" height="18" rx="2" fill="#edf0f5" stroke="#c4cedc"/><rect data-slot="13" data-changed="no" x="580" y="194" width="16" height="18" rx="2" fill="#edf0f5" stroke="#c4cedc"/><rect data-slot="14" data-changed="no" x="600" y="194" width="16" height="18" rx="2" fill="#edf0f5" stroke="#c4cedc"/><rect data-slot="15" data-changed="no" x="620" y="194" width="16" height="18" rx="2" fill="#edf0f5" stroke="#c4cedc"/><rect data-slot="16" data-changed="no" x="640" y="194" width="16" height="18" rx="2" fill="#edf0f5" stroke="#c4cedc"/><rect data-slot="17" data-changed="no" x="660" y="194" width="16" height="18" rx="2" fill="#edf0f5" stroke="#c4cedc"/><rect data-slot="18" data-changed="yes" x="680" y="194" width="16" height="18" rx="2" fill="#2469b2" stroke="#c4cedc"/><rect data-slot="19" data-changed="yes" x="700" y="194" width="16" height="18" rx="2" fill="#2469b2" stroke="#c4cedc"/><rect data-slot="20" data-changed="yes" x="720" y="194" width="16" height="18" rx="2" fill="#2469b2" stroke="#c4cedc"/><rect data-slot="21" data-changed="yes" x="740" y="194" width="16" height="18" rx="2" fill="#2469b2" stroke="#c4cedc"/><rect data-slot="22" data-changed="yes" x="760" y="194" width="16" height="18" rx="2" fill="#2469b2" stroke="#c4cedc"/><rect data-slot="23" data-changed="yes" x="780" y="194" width="16" height="18" rx="2" fill="#2469b2" stroke="#c4cedc"/><rect data-slot="24" data-changed="yes" x="800" y="194" width="16" height="18" rx="2" fill="#2469b2" stroke="#c4cedc"/><rect data-slot="25" data-changed="yes" x="820" y="194" width="16" height="18" rx="2" fill="#2469b2" stroke="#c4cedc"/><rect data-slot="26" data-changed="yes" x="840" y="194" width="16" height="18" rx="2" fill="#2469b2" stroke="#c4cedc"/><rect data-slot="27" data-changed="yes" x="860" y="194" width="16" height="18" rx="2" fill="#2469b2" stroke="#c4cedc"/><rect data-slot="28" data-changed="yes" x="880" y="194" width="16" height="18" rx="2" fill="#2469b2" stroke="#c4cedc"/><rect data-slot="29" data-changed="yes" x="900" y="194" width="16" height="18" rx="2" fill="#2469b2" stroke="#c4cedc"/><rect data-slot="30" data-changed="yes" x="920" y="194" width="16" height="18" rx="2" fill="#2469b2" stroke="#c4cedc"/><rect data-slot="31" data-changed="yes" x="940" y="194" width="16" height="18" rx="2" fill="#2469b2" stroke="#c4cedc"/><rect data-slot="32" data-changed="yes" x="960" y="194" width="16" height="18" rx="2" fill="#2469b2" stroke="#c4cedc"/><rect data-slot="33" data-changed="yes" x="980" y="194" width="16" height="18" rx="2" fill="#2469b2" stroke="#c4cedc"/></g><text x="1032" y="207" font-size="13">18</text>
    <text x="32" y="235" font-size="13">First output, released</text><text x="278" y="235" font-size="13">B</text>
    <g data-trial="B" data-stage="1"><rect data-slot="0" data-changed="no" x="320" y="222" width="16" height="18" rx="2" fill="#edf0f5" stroke="#c4cedc"/><rect data-slot="1" data-changed="no" x="340" y="222" width="16" height="18" rx="2" fill="#edf0f5" stroke="#c4cedc"/><rect data-slot="2" data-changed="yes" x="360" y="222" width="16" height="18" rx="2" fill="#2469b2" stroke="#c4cedc"/><rect data-slot="3" data-changed="no" x="380" y="222" width="16" height="18" rx="2" fill="#edf0f5" stroke="#c4cedc"/><rect data-slot="4" data-changed="no" x="400" y="222" width="16" height="18" rx="2" fill="#edf0f5" stroke="#c4cedc"/><rect data-slot="5" data-changed="no" x="420" y="222" width="16" height="18" rx="2" fill="#edf0f5" stroke="#c4cedc"/><rect data-slot="6" data-changed="no" x="440" y="222" width="16" height="18" rx="2" fill="#edf0f5" stroke="#c4cedc"/><rect data-slot="7" data-changed="no" x="460" y="222" width="16" height="18" rx="2" fill="#edf0f5" stroke="#c4cedc"/><rect data-slot="8" data-changed="no" x="480" y="222" width="16" height="18" rx="2" fill="#edf0f5" stroke="#c4cedc"/><rect data-slot="9" data-changed="no" x="500" y="222" width="16" height="18" rx="2" fill="#edf0f5" stroke="#c4cedc"/><rect data-slot="10" data-changed="no" x="520" y="222" width="16" height="18" rx="2" fill="#edf0f5" stroke="#c4cedc"/><rect data-slot="11" data-changed="yes" x="540" y="222" width="16" height="18" rx="2" fill="#2469b2" stroke="#c4cedc"/><rect data-slot="12" data-changed="no" x="560" y="222" width="16" height="18" rx="2" fill="#edf0f5" stroke="#c4cedc"/><rect data-slot="13" data-changed="no" x="580" y="222" width="16" height="18" rx="2" fill="#edf0f5" stroke="#c4cedc"/><rect data-slot="14" data-changed="no" x="600" y="222" width="16" height="18" rx="2" fill="#edf0f5" stroke="#c4cedc"/><rect data-slot="15" data-changed="no" x="620" y="222" width="16" height="18" rx="2" fill="#edf0f5" stroke="#c4cedc"/><rect data-slot="16" data-changed="yes" x="640" y="222" width="16" height="18" rx="2" fill="#2469b2" stroke="#c4cedc"/><rect data-slot="17" data-changed="no" x="660" y="222" width="16" height="18" rx="2" fill="#edf0f5" stroke="#c4cedc"/><rect data-slot="18" data-changed="no" x="680" y="222" width="16" height="18" rx="2" fill="#edf0f5" stroke="#c4cedc"/><rect data-slot="19" data-changed="no" x="700" y="222" width="16" height="18" rx="2" fill="#edf0f5" stroke="#c4cedc"/><rect data-slot="20" data-changed="yes" x="720" y="222" width="16" height="18" rx="2" fill="#2469b2" stroke="#c4cedc"/><rect data-slot="21" data-changed="yes" x="740" y="222" width="16" height="18" rx="2" fill="#2469b2" stroke="#c4cedc"/><rect data-slot="22" data-changed="yes" x="760" y="222" width="16" height="18" rx="2" fill="#2469b2" stroke="#c4cedc"/><rect data-slot="23" data-changed="yes" x="780" y="222" width="16" height="18" rx="2" fill="#2469b2" stroke="#c4cedc"/><rect data-slot="24" data-changed="yes" x="800" y="222" width="16" height="18" rx="2" fill="#2469b2" stroke="#c4cedc"/><rect data-slot="25" data-changed="yes" x="820" y="222" width="16" height="18" rx="2" fill="#2469b2" stroke="#c4cedc"/><rect data-slot="26" data-changed="yes" x="840" y="222" width="16" height="18" rx="2" fill="#2469b2" stroke="#c4cedc"/><rect data-slot="27" data-changed="yes" x="860" y="222" width="16" height="18" rx="2" fill="#2469b2" stroke="#c4cedc"/><rect data-slot="28" data-changed="yes" x="880" y="222" width="16" height="18" rx="2" fill="#2469b2" stroke="#c4cedc"/><rect data-slot="29" data-changed="yes" x="900" y="222" width="16" height="18" rx="2" fill="#2469b2" stroke="#c4cedc"/><rect data-slot="30" data-changed="yes" x="920" y="222" width="16" height="18" rx="2" fill="#2469b2" stroke="#c4cedc"/><rect data-slot="31" data-changed="yes" x="940" y="222" width="16" height="18" rx="2" fill="#2469b2" stroke="#c4cedc"/><rect data-slot="32" data-changed="yes" x="960" y="222" width="16" height="18" rx="2" fill="#2469b2" stroke="#c4cedc"/><rect data-slot="33" data-changed="yes" x="980" y="222" width="16" height="18" rx="2" fill="#2469b2" stroke="#c4cedc"/></g><text x="1032" y="235" font-size="13">17</text>
    <text x="32" y="263" font-size="13">Delivery EOS</text><text x="278" y="263" font-size="13">A</text>
    <g data-trial="A" data-stage="2"><rect data-slot="0" data-changed="no" x="320" y="250" width="16" height="18" rx="2" fill="#edf0f5" stroke="#c4cedc"/><rect data-slot="1" data-changed="no" x="340" y="250" width="16" height="18" rx="2" fill="#edf0f5" stroke="#c4cedc"/><rect data-slot="2" data-changed="no" x="360" y="250" width="16" height="18" rx="2" fill="#edf0f5" stroke="#c4cedc"/><rect data-slot="3" data-changed="no" x="380" y="250" width="16" height="18" rx="2" fill="#edf0f5" stroke="#c4cedc"/><rect data-slot="4" data-changed="no" x="400" y="250" width="16" height="18" rx="2" fill="#edf0f5" stroke="#c4cedc"/><rect data-slot="5" data-changed="no" x="420" y="250" width="16" height="18" rx="2" fill="#edf0f5" stroke="#c4cedc"/><rect data-slot="6" data-changed="no" x="440" y="250" width="16" height="18" rx="2" fill="#edf0f5" stroke="#c4cedc"/><rect data-slot="7" data-changed="no" x="460" y="250" width="16" height="18" rx="2" fill="#edf0f5" stroke="#c4cedc"/><rect data-slot="8" data-changed="no" x="480" y="250" width="16" height="18" rx="2" fill="#edf0f5" stroke="#c4cedc"/><rect data-slot="9" data-changed="no" x="500" y="250" width="16" height="18" rx="2" fill="#edf0f5" stroke="#c4cedc"/><rect data-slot="10" data-changed="no" x="520" y="250" width="16" height="18" rx="2" fill="#edf0f5" stroke="#c4cedc"/><rect data-slot="11" data-changed="no" x="540" y="250" width="16" height="18" rx="2" fill="#edf0f5" stroke="#c4cedc"/><rect data-slot="12" data-changed="no" x="560" y="250" width="16" height="18" rx="2" fill="#edf0f5" stroke="#c4cedc"/><rect data-slot="13" data-changed="no" x="580" y="250" width="16" height="18" rx="2" fill="#edf0f5" stroke="#c4cedc"/><rect data-slot="14" data-changed="no" x="600" y="250" width="16" height="18" rx="2" fill="#edf0f5" stroke="#c4cedc"/><rect data-slot="15" data-changed="no" x="620" y="250" width="16" height="18" rx="2" fill="#edf0f5" stroke="#c4cedc"/><rect data-slot="16" data-changed="no" x="640" y="250" width="16" height="18" rx="2" fill="#edf0f5" stroke="#c4cedc"/><rect data-slot="17" data-changed="no" x="660" y="250" width="16" height="18" rx="2" fill="#edf0f5" stroke="#c4cedc"/><rect data-slot="18" data-changed="no" x="680" y="250" width="16" height="18" rx="2" fill="#edf0f5" stroke="#c4cedc"/><rect data-slot="19" data-changed="no" x="700" y="250" width="16" height="18" rx="2" fill="#edf0f5" stroke="#c4cedc"/><rect data-slot="20" data-changed="no" x="720" y="250" width="16" height="18" rx="2" fill="#edf0f5" stroke="#c4cedc"/><rect data-slot="21" data-changed="no" x="740" y="250" width="16" height="18" rx="2" fill="#edf0f5" stroke="#c4cedc"/><rect data-slot="22" data-changed="no" x="760" y="250" width="16" height="18" rx="2" fill="#edf0f5" stroke="#c4cedc"/><rect data-slot="23" data-changed="no" x="780" y="250" width="16" height="18" rx="2" fill="#edf0f5" stroke="#c4cedc"/><rect data-slot="24" data-changed="no" x="800" y="250" width="16" height="18" rx="2" fill="#edf0f5" stroke="#c4cedc"/><rect data-slot="25" data-changed="no" x="820" y="250" width="16" height="18" rx="2" fill="#edf0f5" stroke="#c4cedc"/><rect data-slot="26" data-changed="no" x="840" y="250" width="16" height="18" rx="2" fill="#edf0f5" stroke="#c4cedc"/><rect data-slot="27" data-changed="no" x="860" y="250" width="16" height="18" rx="2" fill="#edf0f5" stroke="#c4cedc"/><rect data-slot="28" data-changed="no" x="880" y="250" width="16" height="18" rx="2" fill="#edf0f5" stroke="#c4cedc"/><rect data-slot="29" data-changed="no" x="900" y="250" width="16" height="18" rx="2" fill="#edf0f5" stroke="#c4cedc"/><rect data-slot="30" data-changed="no" x="920" y="250" width="16" height="18" rx="2" fill="#edf0f5" stroke="#c4cedc"/><rect data-slot="31" data-changed="no" x="940" y="250" width="16" height="18" rx="2" fill="#edf0f5" stroke="#c4cedc"/><rect data-slot="32" data-changed="no" x="960" y="250" width="16" height="18" rx="2" fill="#edf0f5" stroke="#c4cedc"/><rect data-slot="33" data-changed="no" x="980" y="250" width="16" height="18" rx="2" fill="#edf0f5" stroke="#c4cedc"/></g><text x="1032" y="263" font-size="13">0</text>
    <text x="32" y="291" font-size="13">Delivery EOS</text><text x="278" y="291" font-size="13">B</text>
    <g data-trial="B" data-stage="2"><rect data-slot="0" data-changed="no" x="320" y="278" width="16" height="18" rx="2" fill="#edf0f5" stroke="#c4cedc"/><rect data-slot="1" data-changed="no" x="340" y="278" width="16" height="18" rx="2" fill="#edf0f5" stroke="#c4cedc"/><rect data-slot="2" data-changed="no" x="360" y="278" width="16" height="18" rx="2" fill="#edf0f5" stroke="#c4cedc"/><rect data-slot="3" data-changed="no" x="380" y="278" width="16" height="18" rx="2" fill="#edf0f5" stroke="#c4cedc"/><rect data-slot="4" data-changed="no" x="400" y="278" width="16" height="18" rx="2" fill="#edf0f5" stroke="#c4cedc"/><rect data-slot="5" data-changed="no" x="420" y="278" width="16" height="18" rx="2" fill="#edf0f5" stroke="#c4cedc"/><rect data-slot="6" data-changed="no" x="440" y="278" width="16" height="18" rx="2" fill="#edf0f5" stroke="#c4cedc"/><rect data-slot="7" data-changed="no" x="460" y="278" width="16" height="18" rx="2" fill="#edf0f5" stroke="#c4cedc"/><rect data-slot="8" data-changed="no" x="480" y="278" width="16" height="18" rx="2" fill="#edf0f5" stroke="#c4cedc"/><rect data-slot="9" data-changed="no" x="500" y="278" width="16" height="18" rx="2" fill="#edf0f5" stroke="#c4cedc"/><rect data-slot="10" data-changed="no" x="520" y="278" width="16" height="18" rx="2" fill="#edf0f5" stroke="#c4cedc"/><rect data-slot="11" data-changed="no" x="540" y="278" width="16" height="18" rx="2" fill="#edf0f5" stroke="#c4cedc"/><rect data-slot="12" data-changed="no" x="560" y="278" width="16" height="18" rx="2" fill="#edf0f5" stroke="#c4cedc"/><rect data-slot="13" data-changed="no" x="580" y="278" width="16" height="18" rx="2" fill="#edf0f5" stroke="#c4cedc"/><rect data-slot="14" data-changed="no" x="600" y="278" width="16" height="18" rx="2" fill="#edf0f5" stroke="#c4cedc"/><rect data-slot="15" data-changed="no" x="620" y="278" width="16" height="18" rx="2" fill="#edf0f5" stroke="#c4cedc"/><rect data-slot="16" data-changed="no" x="640" y="278" width="16" height="18" rx="2" fill="#edf0f5" stroke="#c4cedc"/><rect data-slot="17" data-changed="no" x="660" y="278" width="16" height="18" rx="2" fill="#edf0f5" stroke="#c4cedc"/><rect data-slot="18" data-changed="no" x="680" y="278" width="16" height="18" rx="2" fill="#edf0f5" stroke="#c4cedc"/><rect data-slot="19" data-changed="no" x="700" y="278" width="16" height="18" rx="2" fill="#edf0f5" stroke="#c4cedc"/><rect data-slot="20" data-changed="no" x="720" y="278" width="16" height="18" rx="2" fill="#edf0f5" stroke="#c4cedc"/><rect data-slot="21" data-changed="no" x="740" y="278" width="16" height="18" rx="2" fill="#edf0f5" stroke="#c4cedc"/><rect data-slot="22" data-changed="no" x="760" y="278" width="16" height="18" rx="2" fill="#edf0f5" stroke="#c4cedc"/><rect data-slot="23" data-changed="no" x="780" y="278" width="16" height="18" rx="2" fill="#edf0f5" stroke="#c4cedc"/><rect data-slot="24" data-changed="no" x="800" y="278" width="16" height="18" rx="2" fill="#edf0f5" stroke="#c4cedc"/><rect data-slot="25" data-changed="no" x="820" y="278" width="16" height="18" rx="2" fill="#edf0f5" stroke="#c4cedc"/><rect data-slot="26" data-changed="no" x="840" y="278" width="16" height="18" rx="2" fill="#edf0f5" stroke="#c4cedc"/><rect data-slot="27" data-changed="no" x="860" y="278" width="16" height="18" rx="2" fill="#edf0f5" stroke="#c4cedc"/><rect data-slot="28" data-changed="no" x="880" y="278" width="16" height="18" rx="2" fill="#edf0f5" stroke="#c4cedc"/><rect data-slot="29" data-changed="no" x="900" y="278" width="16" height="18" rx="2" fill="#edf0f5" stroke="#c4cedc"/><rect data-slot="30" data-changed="no" x="920" y="278" width="16" height="18" rx="2" fill="#edf0f5" stroke="#c4cedc"/><rect data-slot="31" data-changed="no" x="940" y="278" width="16" height="18" rx="2" fill="#edf0f5" stroke="#c4cedc"/><rect data-slot="32" data-changed="no" x="960" y="278" width="16" height="18" rx="2" fill="#edf0f5" stroke="#c4cedc"/><rect data-slot="33" data-changed="no" x="980" y="278" width="16" height="18" rx="2" fill="#edf0f5" stroke="#c4cedc"/></g><text x="1032" y="291" font-size="13">0</text>
    <text x="32" y="319" font-size="13">Host STOP returned</text><text x="278" y="319" font-size="13">A</text>
    <g data-trial="A" data-stage="3"><rect data-slot="0" data-changed="no" x="320" y="306" width="16" height="18" rx="2" fill="#edf0f5" stroke="#c4cedc"/><rect data-slot="1" data-changed="no" x="340" y="306" width="16" height="18" rx="2" fill="#edf0f5" stroke="#c4cedc"/><rect data-slot="2" data-changed="no" x="360" y="306" width="16" height="18" rx="2" fill="#edf0f5" stroke="#c4cedc"/><rect data-slot="3" data-changed="no" x="380" y="306" width="16" height="18" rx="2" fill="#edf0f5" stroke="#c4cedc"/><rect data-slot="4" data-changed="no" x="400" y="306" width="16" height="18" rx="2" fill="#edf0f5" stroke="#c4cedc"/><rect data-slot="5" data-changed="no" x="420" y="306" width="16" height="18" rx="2" fill="#edf0f5" stroke="#c4cedc"/><rect data-slot="6" data-changed="no" x="440" y="306" width="16" height="18" rx="2" fill="#edf0f5" stroke="#c4cedc"/><rect data-slot="7" data-changed="no" x="460" y="306" width="16" height="18" rx="2" fill="#edf0f5" stroke="#c4cedc"/><rect data-slot="8" data-changed="no" x="480" y="306" width="16" height="18" rx="2" fill="#edf0f5" stroke="#c4cedc"/><rect data-slot="9" data-changed="no" x="500" y="306" width="16" height="18" rx="2" fill="#edf0f5" stroke="#c4cedc"/><rect data-slot="10" data-changed="no" x="520" y="306" width="16" height="18" rx="2" fill="#edf0f5" stroke="#c4cedc"/><rect data-slot="11" data-changed="no" x="540" y="306" width="16" height="18" rx="2" fill="#edf0f5" stroke="#c4cedc"/><rect data-slot="12" data-changed="no" x="560" y="306" width="16" height="18" rx="2" fill="#edf0f5" stroke="#c4cedc"/><rect data-slot="13" data-changed="no" x="580" y="306" width="16" height="18" rx="2" fill="#edf0f5" stroke="#c4cedc"/><rect data-slot="14" data-changed="no" x="600" y="306" width="16" height="18" rx="2" fill="#edf0f5" stroke="#c4cedc"/><rect data-slot="15" data-changed="no" x="620" y="306" width="16" height="18" rx="2" fill="#edf0f5" stroke="#c4cedc"/><rect data-slot="16" data-changed="no" x="640" y="306" width="16" height="18" rx="2" fill="#edf0f5" stroke="#c4cedc"/><rect data-slot="17" data-changed="no" x="660" y="306" width="16" height="18" rx="2" fill="#edf0f5" stroke="#c4cedc"/><rect data-slot="18" data-changed="no" x="680" y="306" width="16" height="18" rx="2" fill="#edf0f5" stroke="#c4cedc"/><rect data-slot="19" data-changed="no" x="700" y="306" width="16" height="18" rx="2" fill="#edf0f5" stroke="#c4cedc"/><rect data-slot="20" data-changed="no" x="720" y="306" width="16" height="18" rx="2" fill="#edf0f5" stroke="#c4cedc"/><rect data-slot="21" data-changed="no" x="740" y="306" width="16" height="18" rx="2" fill="#edf0f5" stroke="#c4cedc"/><rect data-slot="22" data-changed="no" x="760" y="306" width="16" height="18" rx="2" fill="#edf0f5" stroke="#c4cedc"/><rect data-slot="23" data-changed="no" x="780" y="306" width="16" height="18" rx="2" fill="#edf0f5" stroke="#c4cedc"/><rect data-slot="24" data-changed="no" x="800" y="306" width="16" height="18" rx="2" fill="#edf0f5" stroke="#c4cedc"/><rect data-slot="25" data-changed="no" x="820" y="306" width="16" height="18" rx="2" fill="#edf0f5" stroke="#c4cedc"/><rect data-slot="26" data-changed="no" x="840" y="306" width="16" height="18" rx="2" fill="#edf0f5" stroke="#c4cedc"/><rect data-slot="27" data-changed="no" x="860" y="306" width="16" height="18" rx="2" fill="#edf0f5" stroke="#c4cedc"/><rect data-slot="28" data-changed="no" x="880" y="306" width="16" height="18" rx="2" fill="#edf0f5" stroke="#c4cedc"/><rect data-slot="29" data-changed="no" x="900" y="306" width="16" height="18" rx="2" fill="#edf0f5" stroke="#c4cedc"/><rect data-slot="30" data-changed="no" x="920" y="306" width="16" height="18" rx="2" fill="#edf0f5" stroke="#c4cedc"/><rect data-slot="31" data-changed="no" x="940" y="306" width="16" height="18" rx="2" fill="#edf0f5" stroke="#c4cedc"/><rect data-slot="32" data-changed="no" x="960" y="306" width="16" height="18" rx="2" fill="#edf0f5" stroke="#c4cedc"/><rect data-slot="33" data-changed="no" x="980" y="306" width="16" height="18" rx="2" fill="#edf0f5" stroke="#c4cedc"/></g><text x="1032" y="319" font-size="13">0</text>
    <text x="32" y="347" font-size="13">Host STOP returned</text><text x="278" y="347" font-size="13">B</text>
    <g data-trial="B" data-stage="3"><rect data-slot="0" data-changed="no" x="320" y="334" width="16" height="18" rx="2" fill="#edf0f5" stroke="#c4cedc"/><rect data-slot="1" data-changed="no" x="340" y="334" width="16" height="18" rx="2" fill="#edf0f5" stroke="#c4cedc"/><rect data-slot="2" data-changed="no" x="360" y="334" width="16" height="18" rx="2" fill="#edf0f5" stroke="#c4cedc"/><rect data-slot="3" data-changed="no" x="380" y="334" width="16" height="18" rx="2" fill="#edf0f5" stroke="#c4cedc"/><rect data-slot="4" data-changed="no" x="400" y="334" width="16" height="18" rx="2" fill="#edf0f5" stroke="#c4cedc"/><rect data-slot="5" data-changed="no" x="420" y="334" width="16" height="18" rx="2" fill="#edf0f5" stroke="#c4cedc"/><rect data-slot="6" data-changed="no" x="440" y="334" width="16" height="18" rx="2" fill="#edf0f5" stroke="#c4cedc"/><rect data-slot="7" data-changed="no" x="460" y="334" width="16" height="18" rx="2" fill="#edf0f5" stroke="#c4cedc"/><rect data-slot="8" data-changed="no" x="480" y="334" width="16" height="18" rx="2" fill="#edf0f5" stroke="#c4cedc"/><rect data-slot="9" data-changed="no" x="500" y="334" width="16" height="18" rx="2" fill="#edf0f5" stroke="#c4cedc"/><rect data-slot="10" data-changed="no" x="520" y="334" width="16" height="18" rx="2" fill="#edf0f5" stroke="#c4cedc"/><rect data-slot="11" data-changed="no" x="540" y="334" width="16" height="18" rx="2" fill="#edf0f5" stroke="#c4cedc"/><rect data-slot="12" data-changed="no" x="560" y="334" width="16" height="18" rx="2" fill="#edf0f5" stroke="#c4cedc"/><rect data-slot="13" data-changed="no" x="580" y="334" width="16" height="18" rx="2" fill="#edf0f5" stroke="#c4cedc"/><rect data-slot="14" data-changed="no" x="600" y="334" width="16" height="18" rx="2" fill="#edf0f5" stroke="#c4cedc"/><rect data-slot="15" data-changed="no" x="620" y="334" width="16" height="18" rx="2" fill="#edf0f5" stroke="#c4cedc"/><rect data-slot="16" data-changed="no" x="640" y="334" width="16" height="18" rx="2" fill="#edf0f5" stroke="#c4cedc"/><rect data-slot="17" data-changed="no" x="660" y="334" width="16" height="18" rx="2" fill="#edf0f5" stroke="#c4cedc"/><rect data-slot="18" data-changed="no" x="680" y="334" width="16" height="18" rx="2" fill="#edf0f5" stroke="#c4cedc"/><rect data-slot="19" data-changed="no" x="700" y="334" width="16" height="18" rx="2" fill="#edf0f5" stroke="#c4cedc"/><rect data-slot="20" data-changed="no" x="720" y="334" width="16" height="18" rx="2" fill="#edf0f5" stroke="#c4cedc"/><rect data-slot="21" data-changed="no" x="740" y="334" width="16" height="18" rx="2" fill="#edf0f5" stroke="#c4cedc"/><rect data-slot="22" data-changed="no" x="760" y="334" width="16" height="18" rx="2" fill="#edf0f5" stroke="#c4cedc"/><rect data-slot="23" data-changed="no" x="780" y="334" width="16" height="18" rx="2" fill="#edf0f5" stroke="#c4cedc"/><rect data-slot="24" data-changed="no" x="800" y="334" width="16" height="18" rx="2" fill="#edf0f5" stroke="#c4cedc"/><rect data-slot="25" data-changed="no" x="820" y="334" width="16" height="18" rx="2" fill="#edf0f5" stroke="#c4cedc"/><rect data-slot="26" data-changed="no" x="840" y="334" width="16" height="18" rx="2" fill="#edf0f5" stroke="#c4cedc"/><rect data-slot="27" data-changed="no" x="860" y="334" width="16" height="18" rx="2" fill="#edf0f5" stroke="#c4cedc"/><rect data-slot="28" data-changed="no" x="880" y="334" width="16" height="18" rx="2" fill="#edf0f5" stroke="#c4cedc"/><rect data-slot="29" data-changed="no" x="900" y="334" width="16" height="18" rx="2" fill="#edf0f5" stroke="#c4cedc"/><rect data-slot="30" data-changed="no" x="920" y="334" width="16" height="18" rx="2" fill="#edf0f5" stroke="#c4cedc"/><rect data-slot="31" data-changed="no" x="940" y="334" width="16" height="18" rx="2" fill="#edf0f5" stroke="#c4cedc"/><rect data-slot="32" data-changed="no" x="960" y="334" width="16" height="18" rx="2" fill="#edf0f5" stroke="#c4cedc"/><rect data-slot="33" data-changed="no" x="980" y="334" width="16" height="18" rx="2" fill="#edf0f5" stroke="#c4cedc"/></g><text x="1032" y="347" font-size="13">0</text>
    <rect x="320" y="377" width="16" height="16" rx="2" fill="#2469b2"/><text x="346" y="391" font-size="13">Changed between passes</text>
    <rect x="602" y="377" width="16" height="16" rx="2" fill="#edf0f5" stroke="#c4cedc"/><text x="628" y="391" font-size="13">Equal fingerprints, not a validity certificate</text>
    <text x="32" y="423" font-size="14">First-output raw ring words · D = delivery, R = return · read/write in hexadecimal</text>
    <text x="32" y="451" font-size="14">A: pass0 D 04/11, R 04/00 → pass1 D 06/1c, R 05/06</text>
    <text x="32" y="477" font-size="14">B: pass0 D 04/11, R 04/04 → pass1 D 07/1d, R 06/06</text>
    <text x="32" y="508" font-size="14" fill="#805005">One raw R write index 0 is outside normal source indices 2–63; its cause is unattributed.</text>
    <text x="32" y="539" font-size="14">EOS and post-STOP: eight matching late snapshots; all four ring words 3b.</text>
    <text x="32" y="568" font-size="14">572 / 572 frames: whole-output controls, firmware EOS and cleanup passed.</text>
    <text x="32" y="595" font-size="14">Each observed trial: 784 reads / 22,208 B · max 72 B · residual payloads are not published</text>
    <text x="32" y="628" font-size="13">No current-record, ARC-completion, generation, extent or source-lease certification. No source-plane pointers followed.</text>
  </g>
</svg>
