<svg xmlns="http://www.w3.org/2000/svg" width="1080" height="640" viewBox="0 0 1080 640" role="img" aria-labelledby="title desc">
<title id="title">Measured BCM70015 native scaler responses</title>
<desc id="desc">Decoded host YUY2 luma before and after decoder-mediated 640 by 360 to 320 by 180 scaling. Same-parity translated input and output response patches match exactly at five interior positions, with two repeated captures. This does not establish coefficient format or standalone scaling.</desc>
<metadata>{"date":"2026-10-04","codec":"MPEG-2 all-I","stimulus_sha256":"a564f40f612124da377b5c43c68e8bff0288db1eb38970f4e62bb00b7c067284","control_sha256":"d70bd7d7766930b7521cd686e334b0236328abcc272d13eb7f142ef01238cd22","scaled_sha256":"7d7c5dac5e1a958d96f5096b787595e19a5664d394d685a6470c42d6bbb8e80e","source_width":640,"target_width":320,"frames_per_capture":20,"translated_positions_per_parity":5,"max_translated_output_difference":0}</metadata>
<rect width="1080" height="640" fill="#fff"/>
<g font-family="sans-serif" fill="#17212b">
<text x="48" y="42" font-size="25">BCM70015: measured native scaler response</text>
<text x="48" y="72" font-size="16">MPEG-2 all-I · 640×360 → 320×180 · neutral chroma · owned host YUY2</text>
<path d="M48 99H90" fill="none" stroke="#64748b" stroke-width="2" stroke-dasharray="6 4"/>
<text x="100" y="104" font-size="15">Decoded 640-wide control</text>
<path d="M400 99H442" fill="none" stroke="#0891b2" stroke-width="3"/>
<text x="452" y="104" font-size="15">320-wide measurement (two byte-identical runs)</text>
<text x="24" y="320" font-size="13" text-anchor="middle" transform="rotate(-90 24 320)">Luma Y (8-bit code)</text>
<text x="75" y="140" font-size="18">Even source positions: 128, 256, 320, 384, 512</text>
<path d="M75 425.00h430" stroke="#e2e8f0"/><text x="65" y="430.00" font-size="13" text-anchor="end">120</text>
<path d="M75 390.33h430" stroke="#e2e8f0"/><text x="65" y="395.33" font-size="13" text-anchor="end">128</text>
<path d="M75 321.00h430" stroke="#e2e8f0"/><text x="65" y="326.00" font-size="13" text-anchor="end">144</text>
<path d="M75 251.67h430" stroke="#e2e8f0"/><text x="65" y="256.67" font-size="13" text-anchor="end">160</text>
<path d="M75 182.33h430" stroke="#e2e8f0"/><text x="65" y="187.33" font-size="13" text-anchor="end">176</text>
<path d="M75 165v260" stroke="#e2e8f0"/><text x="75" y="447" font-size="13" text-anchor="middle">-8</text>
<path d="M182.5 165v260" stroke="#e2e8f0"/><text x="182.5" y="447" font-size="13" text-anchor="middle">-4</text>
<path d="M290 165v260" stroke="#e2e8f0"/><text x="290" y="447" font-size="13" text-anchor="middle">0</text>
<path d="M397.5 165v260" stroke="#e2e8f0"/><text x="397.5" y="447" font-size="13" text-anchor="middle">4</text>
<path d="M505 165v260" stroke="#e2e8f0"/><text x="505" y="447" font-size="13" text-anchor="middle">8</text>
<polyline points="75.00,390.33 88.44,390.33 101.88,390.33 115.31,390.33 128.75,390.33 142.19,390.33 155.63,390.33 169.06,390.33 182.50,390.33 195.94,390.33 209.38,390.33 222.81,390.33 236.25,390.33 249.69,390.33 263.13,390.33 276.56,390.33 290.00,191.00 303.44,377.33 316.88,394.67 330.31,386.00 343.75,390.33 357.19,390.33 370.63,394.67 384.06,390.33 397.50,390.33 410.94,390.33 424.38,390.33 437.81,390.33 451.25,390.33 464.69,390.33 478.13,390.33 491.56,390.33 505.00,390.33" fill="none" stroke="#64748b" stroke-width="2" stroke-dasharray="6 4"/>
<polyline points="75.00,390.33 101.88,390.33 128.75,390.33 155.63,390.33 182.50,390.33 209.38,390.33 236.25,390.33 263.13,364.33 290.00,295.00 316.88,390.33 343.75,390.33 370.63,390.33 397.50,390.33 424.38,390.33 451.25,390.33 478.13,390.33 505.00,390.33" fill="none" stroke="#0891b2" stroke-width="3"/>
<circle cx="75.00" cy="390.33" r="3" fill="#0891b2"/>
<circle cx="101.88" cy="390.33" r="3" fill="#0891b2"/>
<circle cx="128.75" cy="390.33" r="3" fill="#0891b2"/>
<circle cx="155.63" cy="390.33" r="3" fill="#0891b2"/>
<circle cx="182.50" cy="390.33" r="3" fill="#0891b2"/>
<circle cx="209.38" cy="390.33" r="3" fill="#0891b2"/>
<circle cx="236.25" cy="390.33" r="3" fill="#0891b2"/>
<circle cx="263.13" cy="364.33" r="3" fill="#0891b2"/>
<circle cx="290.00" cy="295.00" r="3" fill="#0891b2"/>
<circle cx="316.88" cy="390.33" r="3" fill="#0891b2"/>
<circle cx="343.75" cy="390.33" r="3" fill="#0891b2"/>
<circle cx="370.63" cy="390.33" r="3" fill="#0891b2"/>
<circle cx="397.50" cy="390.33" r="3" fill="#0891b2"/>
<circle cx="424.38" cy="390.33" r="3" fill="#0891b2"/>
<circle cx="451.25" cy="390.33" r="3" fill="#0891b2"/>
<circle cx="478.13" cy="390.33" r="3" fill="#0891b2"/>
<circle cx="505.00" cy="390.33" r="3" fill="#0891b2"/>
<text x="290" y="473" font-size="14" text-anchor="middle">Relative output column</text>
<text x="75" y="507" font-size="15">5 translated responses match exactly (max Δ = 0)</text>
<text x="605" y="140" font-size="18">Odd source positions: 129, 257, 321, 385, 513</text>
<path d="M605 425.00h430" stroke="#e2e8f0"/><text x="595" y="430.00" font-size="13" text-anchor="end">120</text>
<path d="M605 390.33h430" stroke="#e2e8f0"/><text x="595" y="395.33" font-size="13" text-anchor="end">128</text>
<path d="M605 321.00h430" stroke="#e2e8f0"/><text x="595" y="326.00" font-size="13" text-anchor="end">144</text>
<path d="M605 251.67h430" stroke="#e2e8f0"/><text x="595" y="256.67" font-size="13" text-anchor="end">160</text>
<path d="M605 182.33h430" stroke="#e2e8f0"/><text x="595" y="187.33" font-size="13" text-anchor="end">176</text>
<path d="M605 165v260" stroke="#e2e8f0"/><text x="605" y="447" font-size="13" text-anchor="middle">-8</text>
<path d="M712.5 165v260" stroke="#e2e8f0"/><text x="712.5" y="447" font-size="13" text-anchor="middle">-4</text>
<path d="M820 165v260" stroke="#e2e8f0"/><text x="820" y="447" font-size="13" text-anchor="middle">0</text>
<path d="M927.5 165v260" stroke="#e2e8f0"/><text x="927.5" y="447" font-size="13" text-anchor="middle">4</text>
<path d="M1035 165v260" stroke="#e2e8f0"/><text x="1035" y="447" font-size="13" text-anchor="middle">8</text>
<polyline points="605.00,390.33 618.44,390.33 631.88,390.33 645.31,390.33 658.75,390.33 672.19,390.33 685.63,390.33 699.06,390.33 712.50,390.33 725.94,390.33 739.38,390.33 752.81,390.33 766.25,390.33 779.69,390.33 793.13,390.33 806.56,390.33 820.00,390.33 833.44,186.67 846.88,390.33 860.31,390.33 873.75,381.67 887.19,394.67 900.63,390.33 914.06,394.67 927.50,390.33 940.94,390.33 954.38,390.33 967.81,390.33 981.25,390.33 994.69,390.33 1008.13,390.33 1021.56,390.33 1035.00,390.33" fill="none" stroke="#64748b" stroke-width="2" stroke-dasharray="6 4"/>
<polyline points="605.00,390.33 631.88,390.33 658.75,390.33 685.63,390.33 712.50,390.33 739.38,390.33 766.25,390.33 793.13,390.33 820.00,312.33 846.88,377.33 873.75,381.67 900.63,394.67 927.50,390.33 954.38,390.33 981.25,390.33 1008.13,390.33 1035.00,390.33" fill="none" stroke="#0891b2" stroke-width="3"/>
<circle cx="605.00" cy="390.33" r="3" fill="#0891b2"/>
<circle cx="631.88" cy="390.33" r="3" fill="#0891b2"/>
<circle cx="658.75" cy="390.33" r="3" fill="#0891b2"/>
<circle cx="685.63" cy="390.33" r="3" fill="#0891b2"/>
<circle cx="712.50" cy="390.33" r="3" fill="#0891b2"/>
<circle cx="739.38" cy="390.33" r="3" fill="#0891b2"/>
<circle cx="766.25" cy="390.33" r="3" fill="#0891b2"/>
<circle cx="793.13" cy="390.33" r="3" fill="#0891b2"/>
<circle cx="820.00" cy="312.33" r="3" fill="#0891b2"/>
<circle cx="846.88" cy="377.33" r="3" fill="#0891b2"/>
<circle cx="873.75" cy="381.67" r="3" fill="#0891b2"/>
<circle cx="900.63" cy="394.67" r="3" fill="#0891b2"/>
<circle cx="927.50" cy="390.33" r="3" fill="#0891b2"/>
<circle cx="954.38" cy="390.33" r="3" fill="#0891b2"/>
<circle cx="981.25" cy="390.33" r="3" fill="#0891b2"/>
<circle cx="1008.13" cy="390.33" r="3" fill="#0891b2"/>
<circle cx="1035.00" cy="390.33" r="3" fill="#0891b2"/>
<text x="820" y="473" font-size="14" text-anchor="middle">Relative output column</text>
<text x="605" y="507" font-size="15">5 translated responses match exactly (max Δ = 0)</text>
<text x="48" y="553" font-size="15">Input patches also match after translation; all 20 frames/capture reached EOS and clean close.</text>
<text x="48" y="581" font-size="15">Bounded effective-path result only: coefficient format, rounding and standalone use remain unverified.</text>
<text x="48" y="611" font-size="12" fill="#64748b">Stimulus a564f40f6121 · control d70bd7d77669 · scaled 7d7c5dac5e1a · 2026-10-04</text>
</g>
</svg>
